#!OML:ASF H:\ManfredETheater\Project 1\Capture day 1\Session 1\subject.ASF
:FULLY-SPECIFIED
:DEGREES
81
root 11.5614 12.4879 9.0788 -127.954 -83.4075 153.287
lowerback 62.4995 -2.90625 1.19238
upperback 11.7112 -5.41687 -0.171963
thorax -8.29234 -3.3781 1.84615
lowerneck 1.49364 -11.1562 -13.199
upperneck -13.5764 -14.2912 18.3578
head -1.81451 -7.75051 7.79275
rclavicle 9.30312e-014 3.72721e-015
rhumerus -25.0602 9.33369 -76.9245
rradius 63.1226
rwrist -8.34455
rhand -26.7362 -5.33934
rfingers 7.12502
rthumb -0.165324 -35.319
lclavicle 9.30312e-014 3.72721e-015
lhumerus -4.41502 17.5862 47.3092
lradius 97.4102
lwrist 8.46294
lhand -29.55 0.507718
lfingers 7.12502
lthumb -2.88288 30.468
rfemur -80.0634 -36.4009 0.31639
rtibia 70.5546
rfoot 1.79884 -10.381
rtoes -32.7748
lfemur -71.9073 21.3063 3.73904
ltibia 80.9472
lfoot -29.2101 -23.3659
ltoes -25.123
82
root 11.4546 12.5192 8.63354 -123.708 -83.5839 148.444
lowerback 63.271 -3.70661 1.8186
upperback 11.5192 -5.94527 -0.522965
thorax -8.56197 -3.56319 1.44393
lowerneck 1.70532 -11.1519 -13.2066
upperneck -13.8082 -14.3064 18.2296
head -1.92665 -7.76515 7.7827
rclavicle 1.1291e-013 4.55217e-014
rhumerus -26.0315 9.44914 -77.7191
rradius 63.9875
rwrist -9.73064
rhand -25.8243 -5.19962
rfingers 7.12502
rthumb 0.715407 -35.1782
lclavicle 1.1291e-013 4.55217e-014
lhumerus -5.94828 19.9114 48.4697
lradius 96.7939
lwrist 7.0501
lhand -29.3898 0.312167
lfingers 7.12502
lthumb -2.72815 30.2745
rfemur -81.3366 -36.9023 1.75763
rtibia 74.1908
rfoot 0.0954474 -5.80107
rtoes -25.9526
lfemur -68.9096 19.5607 6.16286
ltibia 78.9191
lfoot -28.6459 -20.6166
ltoes -29.0026
83
root 11.3426 12.5634 8.18113 -125.292 -83.698 149.528
lowerback 63.7533 -3.96912 2.0381
upperback 11.4926 -6.14606 -0.695977
thorax -8.61453 -3.64457 1.25567
lowerneck 1.75661 -11.1061 -13.1931
upperneck -13.8629 -14.27 18.0152
head -1.9789 -7.73968 7.72553
rclavicle -8.34896e-014 -6.54002e-014
rhumerus -26.7513 9.85625 -78.3482
rradius 64.8342
rwrist -11.0746
rhand -24.4376 -5.1038
rfingers 7.12502
rthumb 2.05469 -35.0737
lclavicle -8.34896e-014 -6.54002e-014
lhumerus -7.71998 22.6161 49.726
lradius 96.6754
lwrist 7.06345
lhand -29.7854 0.691657
lfingers 7.12502
lthumb -3.11024 30.6487
rfemur -82.591 -36.7246 3.82907
rtibia 77.3429
rfoot -1.41998 -5.69579
rtoes -28.4507
lfemur -65.6696 17.9531 9.15864
ltibia 76.9172
lfoot -27.6284 -17.7614
ltoes -32.569
84
root 11.2262 12.6202 7.72019 -131.126 -83.5501 154.967
lowerback 64.1489 -3.82794 1.94225
upperback 11.4311 -6.11669 -0.897674
thorax -8.70391 -3.63239 1.06749
lowerneck 1.75138 -11.0424 -13.2948
upperneck -13.6164 -14.2127 17.8828
head -1.92041 -7.68895 7.69012
rclavicle 1.51076e-014 2.62147e-014
rhumerus -27.5464 10.2143 -79.1158
rradius 65.5466
rwrist -11.6102
rhand -23.0225 -4.90455
rfingers 7.12502
rthumb 3.42135 -34.8568
lclavicle 1.51076e-014 2.62147e-014
lhumerus -9.54563 25.3599 50.9907
lradius 96.7928
lwrist 8.46534
lhand -30.1172 0.709211
lfingers 7.12502
lthumb -3.43065 30.6614
rfemur -84.0674 -36.1196 6.60673
rtibia 80.2835
rfoot -4.55451 -5.39464
rtoes -31.2624
lfemur -62.355 16.8549 12.125
ltibia 74.9801
lfoot -25.9979 -14.8809
ltoes -36.0121
85
root 11.1113 12.6607 7.25512 -134.502 -82.7596 158.619
lowerback 63.4119 -3.33165 1.26247
upperback 11.5516 -6.07671 -1.26938
thorax -8.59444 -3.60206 0.911221
lowerneck 1.71872 -10.9951 -13.3451
upperneck -13.146 -14.1758 17.7794
head -1.79001 -7.6429 7.6402
rclavicle 7.95139e-015 1.44119e-014
rhumerus -28.4224 10.3684 -79.9949
rradius 66.2589
rwrist -11.9028
rhand -21.173 -4.44738
rfingers 7.12502
rthumb 5.20735 -34.3634
lclavicle 7.95139e-015 1.44119e-014
lhumerus -11.5025 27.8928 52.0476
lradius 97.2974
lwrist 10.8108
lhand -30.4004 1.08186
lfingers 7.12502
lthumb -3.7041 31.0294
rfemur -86.2705 -35.3418 9.26938
rtibia 82.9126
rfoot -7.07718 -5.16398
rtoes -31.3814
lfemur -59.849 16.2054 14.3101
ltibia 73.3901
lfoot -23.3599 -12.683
ltoes -37.7878
86
root 11.0149 12.7465 6.78842 -133.791 -82.0115 158.381
lowerback 62.2963 -3.14816 0.589152
upperback 11.6923 -6.34813 -1.78794
thorax -8.46896 -3.68539 0.729494
lowerneck 1.66741 -10.8832 -13.5115
upperneck -12.5683 -14.0441 17.8505
head -1.61472 -7.54818 7.65975
rclavicle -6.52014e-014 -7.7526e-015
rhumerus -29.2982 10.3234 -81.2247
rradius 66.694
rwrist -11.2399
rhand -20.2071 -3.83175
rfingers 7.12502
rthumb 6.13986 -33.7228
lclavicle -6.52014e-014 -7.7526e-015
lhumerus -13.5939 30.438 52.8183
lradius 97.9134
lwrist 13.5974
lhand -30.3538 1.18836
lfingers 7.12502
lthumb -3.65914 31.1367
rfemur -88.1461 -34.6902 11.7237
rtibia 85.0823
rfoot -9.33409 -5.71207
rtoes -31.6586
lfemur -58.1236 15.1553 15.8165
ltibia 72.0536
lfoot -19.7012 -10.57
ltoes -38.2904
87
root 10.9127 12.7949 6.32302 -131.369 -81.247 156.271
lowerback 61.3787 -2.931 -0.194177
upperback 11.8005 -6.63169 -2.32078
thorax -8.36632 -3.77617 0.592571
lowerneck 1.72156 -10.8042 -13.5612
upperneck -12.0788 -13.9453 18.0457
head -1.47461 -7.48641 7.71018
rclavicle -7.95139e-015 -7.83006e-015
rhumerus -30.3517 10.0846 -82.3747
rradius 67.2506
rwrist -10.4582
rhand -19.8144 -3.12793
rfingers 7.12502
rthumb 6.51896 -33.0076
lclavicle -7.95139e-015 -7.83006e-015
lhumerus -15.4411 32.5319 53.5878
lradius 98.7236
lwrist 17.0374
lhand -31.0336 2.05935
lfingers 7.12502
lthumb -4.31558 31.9954
rfemur -89.7636 -34.2861 13.6678
rtibia 87.2179
rfoot -11.5408 -5.96568
rtoes -31.0152
lfemur -57.0487 14.3976 16.8204
ltibia 71.3313
lfoot -15.1643 -9.23244
ltoes -36.9098
88
root 10.8141 12.8525 5.85463 -128.095 -80.5745 153.186
lowerback 60.647 -2.74288 -0.918129
upperback 11.8691 -6.89416 -2.83949
thorax -8.30336 -3.85813 0.44384
lowerneck 1.88949 -10.772 -13.4448
upperneck -11.701 -13.9023 18.2877
head -1.38513 -7.46811 7.76036
rclavicle -2.54444e-014 -3.18304e-014
rhumerus -31.597 9.51491 -83.4824
rradius 67.896
rwrist -9.51604
rhand -20.1674 -2.56739
rfingers 7.12502
rthumb 6.17818 -32.4573
lclavicle -2.54444e-014 -3.18304e-014
lhumerus -16.709 34.058 54.9132
lradius 99.7484
lwrist 20.5033
lhand -32.5944 3.70719
lfingers 7.12502
lthumb -5.82266 33.6072
rfemur -90.8799 -34.0221 15.3002
rtibia 89.0975
rfoot -13.6532 -6.04747
rtoes -29.9748
lfemur -56.5219 13.4098 17.3514
ltibia 70.863
lfoot -10.1761 -7.08244
ltoes -35.6271
89
root 10.7125 12.9306 5.38363 -124.241 -80.0554 149.215
lowerback 60.4249 -2.90232 -1.41097
upperback 11.8421 -7.44299 -3.53357
thorax -8.40294 -4.04555 0.140601
lowerneck 2.02555 -10.6612 -13.4619
upperneck -11.2527 -13.7492 18.7475
head -1.25821 -7.39527 7.89921
rclavicle 1.59028e-014 -3.14825e-014
rhumerus -32.9802 8.92337 -84.8758
rradius 68.5948
rwrist -8.63694
rhand -20.8782 -1.97985
rfingers 7.12502
rthumb 5.49194 -31.8887
lclavicle 1.59028e-014 -3.14825e-014
lhumerus -18.2993 35.4203 55.2581
lradius 100.613
lwrist 22.8637
lhand -33.5633 4.75189
lfingers 7.12502
lthumb -6.75797 34.624
rfemur -91.3512 -33.9622 16.7009
rtibia 90.7556
rfoot -15.6431 -6.59437
rtoes -29.8134
lfemur -56.411 12.3308 17.3544
ltibia 70.6177
lfoot -4.91433 -4.97279
ltoes -33.8263
90
root 10.5988 13.0264 4.90855 -121.587 -79.6628 145.856
lowerback 61.0215 -2.86422 -1.92961
upperback 11.7796 -7.82456 -4.01221
thorax -8.53107 -4.18315 0.00875822
lowerneck 2.12961 -10.5779 -13.3995
upperneck -10.8999 -13.6328 19.118
head -1.16294 -7.34283 8.00017
rclavicle -9.54166e-015 2.24875e-014
rhumerus -34.2992 8.11712 -86.0603
rradius 69.3774
rwrist -8.08463
rhand -21.9334 -1.5514
rfingers 7.12502
rthumb 4.47305 -31.4842
lclavicle -9.54166e-015 2.24875e-014
lhumerus -19.4531 36.3411 55.9317
lradius 101.474
lwrist 24.3593
lhand -34.819 6.06257
lfingers 7.12502
lthumb -7.97006 35.8923
rfemur -90.7727 -34.0141 17.9418
rtibia 92.2117
rfoot -17.873 -7.0592
rtoes -29.0198
lfemur -55.9464 11.2708 17.0923
ltibia 70.4162
lfoot 0.30368 -3.53413
ltoes -28.2294
91
root 10.4824 13.1128 4.44602 -117.785 -79.2798 141.442
lowerback 61.4396 -3.05911 -2.25764
upperback 11.7393 -8.34851 -4.56288
thorax -8.66156 -4.3698 -0.220679
lowerneck 2.30654 -10.503 -13.5836
upperneck -10.5003 -13.5454 19.6187
head -1.03301 -7.30191 8.18101
rclavicle -2.54444e-014 1.02871e-014
rhumerus -35.7574 7.24256 -87.2886
rradius 70.2438
rwrist -7.85685
rhand -23.2066 -1.29422
rfingers 7.12502
rthumb 3.24357 -31.2493
lclavicle -2.54444e-014 1.02871e-014
lhumerus -20.4614 37.0316 56.4226
lradius 102.182
lwrist 25.4505
lhand -34.8287 5.96429
lfingers 7.12502
lthumb -7.97943 35.7937
rfemur -90.2486 -34.4389 19.0948
rtibia 93.5077
rfoot -19.8733 -7.47721
rtoes -28.7991
lfemur -55.8861 10.442 16.22
ltibia 70.4531
lfoot 2.78309 -3.37534
ltoes -20.9609
92
root 10.3687 13.1938 3.99441 -113.744 -79.1654 136.825
lowerback 61.8486 -3.44587 -2.29471
upperback 11.6664 -8.87931 -5.0031
thorax -8.84207 -4.556 -0.445641
lowerneck 2.35222 -10.4115 -13.5992
upperneck -9.91623 -13.4582 19.6995
head -0.879499 -7.23565 8.19023
rclavicle -8.11041e-014 -1.04859e-014
rhumerus -37.2363 6.18401 -88.3917
rradius 70.9393
rwrist -6.98666
rhand -24.5967 -1.1513
rfingers 7.12502
rthumb 1.90104 -31.1226
lclavicle -8.11041e-014 -1.04859e-014
lhumerus -21.3426 37.3298 56.954
lradius 102.852
lwrist 25.5213
lhand -35.194 6.91809
lfingers 7.12502
lthumb -8.33198 36.7338
rfemur -89.5527 -35.1148 20.2972
rtibia 94.6832
rfoot -21.9574 -7.50933
rtoes -28.3437
lfemur -56.1583 9.85547 15.2802
ltibia 70.8143
lfoot 1.55983 -5.19514
ltoes -14.2158
93
root 10.2583 13.2604 3.5452 -110.892 -79.0145 133.734
lowerback 61.6615 -3.57389 -2.55615
upperback 11.713 -9.22062 -5.37405
thorax -8.84119 -4.68055 -0.586731
lowerneck 2.51753 -10.3281 -13.5231
upperneck -9.51979 -13.3747 19.8147
head -0.803038 -7.18838 8.21297
rclavicle 2.06736e-014 -6.5102e-015
rhumerus -38.6173 5.21675 -89.4421
rradius 71.5683
rwrist -6.64876
rhand -25.8214 -0.885664
rfingers 7.12502
rthumb 0.718277 -30.8642
lclavicle 2.06736e-014 -6.5102e-015
lhumerus -22.0297 37.5498 57.4369
lradius 103.392
lwrist 24.6147
lhand -35.7164 7.85504
lfingers 7.12502
lthumb -8.83616 37.6501
rfemur -89.2866 -35.5004 21.7254
rtibia 95.9287
rfoot -23.4859 -7.12164
rtoes -28.1707
lfemur -56.8476 10.1726 14.0889
ltibia 71.6576
lfoot -0.21874 -7.55845
ltoes -7.49244
